<?xml version="1.0" encoding="utf-8"?>
<!-- Generator: Adobe Illustrator 21.0.0, SVG Export Plug-In . SVG Version: 6.00 Build 0)  -->
<svg version="1.1" id="Layer_1" xmlns="http://www.w3.org/2000/svg" xmlns:xlink="http://www.w3.org/1999/xlink" x="0px" y="0px"
	 viewBox="0 0 24 16" enable-background="new 0 0 24 16" xml:space="preserve">
<g transform="translate(0,-952.36218)">
	<path fill="#FFFFFF" d="M16.3,954.2c-0.4,0-0.7,0.4-0.7,0.8c0,0.2,0.1,0.4,0.2,0.5l4.5,4.1H1.6c0,0-0.1,0-0.1,0
		c-0.4,0-0.7,0.4-0.7,0.8c0,0.4,0.4,0.7,0.8,0.7h18.8l-4.5,4.1c-0.3,0.3-0.4,0.7-0.1,1c0.3,0.3,0.7,0.4,1,0.1c0,0,0,0,0.1,0l5.9-5.4
		c0.3-0.3,0.3-0.7,0-1c0,0,0,0,0,0l-5.9-5.4C16.7,954.3,16.5,954.2,16.3,954.2z"/>
</g>
</svg>
