<?xml version="1.0" encoding="utf-8"?>
<!-- Generator: Adobe Illustrator 21.0.0, SVG Export Plug-In . SVG Version: 6.00 Build 0)  -->
<svg version="1.1" id="Layer_1" xmlns="http://www.w3.org/2000/svg" xmlns:xlink="http://www.w3.org/1999/xlink" x="0px" y="0px"
	 viewBox="0 0 40 40" enable-background="new 0 0 40 40" xml:space="preserve">
<path fill="#FFFFFF" d="M19.8,32.1L18.3,31c-4.8-3.3-10.7-7.4-11.5-12.3c-0.4-2.6,0.2-5.2,1.9-7.1C10,10,12.1,9,14.1,9
	c2.1,0,4.1,1,5.7,2.8C21.4,10,23.4,9,25.5,9s4.1,1,5.5,2.7c1.6,1.9,2.3,4.5,1.9,7.1c-0.8,4.8-6.7,8.9-11.5,12.3L19.8,32.1z
	 M14.2,11.4c-1.4,0-2.7,0.7-3.7,1.8c-1.2,1.4-1.6,3.2-1.3,5.1c0.7,3.8,6.1,7.6,10.5,10.7l0.2,0.1l0.2-0.1c4.4-3.1,9.9-6.9,10.5-10.7
	c0.3-1.9-0.1-3.7-1.3-5.1c-1-1.2-2.3-1.8-3.7-1.8c-1.8,0-3.4,1-4.6,3l-1,1.5l-1-1.5C17.6,12.5,15.9,11.4,14.2,11.4z"/>
</svg>
