<?xml version="1.0" encoding="utf-8"?>
<!-- Generator: Adobe Illustrator 21.0.0, SVG Export Plug-In . SVG Version: 6.00 Build 0)  -->
<svg version="1.1" id="Layer_1" xmlns="http://www.w3.org/2000/svg" xmlns:xlink="http://www.w3.org/1999/xlink" x="0px" y="0px"
	 viewBox="0 0 40 40" enable-background="new 0 0 40 40" xml:space="preserve">
<path fill="#FFFFFF" d="M28.3,6.9c3.7,4.1,3.7,10.4,0,14.5c-0.3,0.3-0.6,0.7-0.9,0.9c-1.1,1-1.6,2-1.6,3.3v1.4
	c0,0.7-0.6,1.2-1.2,1.2l0,0c-0.7,0-1.2-0.6-1.2-1.2v-1.4c0-2,0.8-3.6,2.5-5.1c0.2-0.2,0.5-0.5,0.7-0.7c2.9-3.2,2.9-8.1,0-11.3
	c-1.7-1.9-4-2.9-6.5-2.9s-4.8,1.1-6.4,2.9c-2.9,3.2-2.9,8.1,0,11.3c0.2,0.2,0.5,0.5,0.7,0.7c1.7,1.5,2.5,3.2,2.5,5.2v1.3
	c0,0.7-0.6,1.2-1.2,1.2l0,0c-0.7,0-1.2-0.6-1.2-1.2v-1.3c0-1.3-0.5-2.3-1.7-3.3c-0.3-0.4-0.7-0.7-0.9-1c-3.7-4.1-3.7-10.4,0-14.6
	c2.1-2.4,5.1-3.7,8.3-3.7S26.2,4.6,28.3,6.9z M24.5,30.5h-8.9c-0.7,0-1.2,0.6-1.2,1.2c0,0.7,0.6,1.2,1.2,1.2h8.9
	c0.7,0,1.2-0.6,1.2-1.2C25.7,31,25.1,30.5,24.5,30.5z M22.4,34.6h-4.8c-0.7,0-1.2,0.6-1.2,1.2c0,0.7,0.6,1.2,1.2,1.2h4.8
	c0.7,0,1.2-0.6,1.2-1.2C23.6,35.1,23.1,34.6,22.4,34.6z M20,28.3c0.7,0,1.2-0.6,1.2-1.2v-8.4c0-0.3-0.1-0.6-0.3-0.9l-3.4-3.4
	c-0.5-0.5-1.3-0.5-1.7,0c-0.5,0.5-0.5,1.3,0,1.7l3.1,3.1v7.9C18.8,27.7,19.4,28.3,20,28.3z M23.7,16.8l0.7-0.7
	c0.5-0.5,0.5-1.3,0-1.7c-0.5-0.5-1.3-0.5-1.7,0L22,15.1c-0.5,0.5-0.5,1.3,0,1.7c0.2,0.2,0.6,0.3,0.9,0.3
	C23.1,17.1,23.4,17,23.7,16.8z"/>
</svg>
